<?xml version="1.0" encoding="UTF-8"?>
<!DOCTYPE svg PUBLIC "-//W3C//DTD SVG 1.1//EN" "http://www.w3.org/Graphics/SVG/1.1/DTD/svg11.dtd">
<svg xmlns="http://www.w3.org/2000/svg" version="1.1" width="100px" height="100px" style="shape-rendering:geometricPrecision; text-rendering:geometricPrecision; image-rendering:optimizeQuality; fill-rule:evenodd; clip-rule:evenodd" xmlns:xlink="http://www.w3.org/1999/xlink">
<g><path style="opacity:0.59" fill="#fefffe" d="M 36.5,20.5 C 48.8615,18.64 60.1948,21.14 70.5,28C 73.7306,30.7273 76.3972,33.894 78.5,37.5C 90.3681,43.2739 93.8681,52.2739 89,64.5C 87,67.1667 84.6667,69.5 82,71.5C 81.6386,74.4371 82.1386,77.2704 83.5,80C 83.3552,80.772 83.0219,81.4387 82.5,82C 76.8447,82.3371 71.8447,80.6704 67.5,77C 59.3545,76.438 51.5212,74.6047 44,71.5C 39.2381,73.797 34.4048,75.9637 29.5,78C 27.444,78.3108 25.444,78.8108 23.5,79.5C 22.5224,79.0233 21.6891,78.3567 21,77.5C 21.487,74.1818 22.3203,70.8484 23.5,67.5C 22.2262,64.3909 20.0595,62.0576 17,60.5C 8.80442,48.6503 9.97109,37.817 20.5,28C 25.5424,24.6426 30.8757,22.1426 36.5,20.5 Z M 37.5,23.5 C 53.1718,20.9933 65.6718,25.9933 75,38.5C 78.1424,49.057 74.9757,57.2237 65.5,63C 57.3017,66.9234 48.6351,68.9234 39.5,69C 35.198,73.1683 30.198,75.0016 24.5,74.5C 26.0899,70.9637 26.5899,67.297 26,63.5C 11.2717,52.6135 10.7717,41.1135 24.5,29C 28.7415,26.6512 33.0748,24.8179 37.5,23.5 Z M 79.5,40.5 C 92.3223,49.7576 92.6556,59.4242 80.5,69.5C 79.1885,73.1538 79.5219,76.6538 81.5,80C 76.7045,79.778 72.3712,78.1113 68.5,75C 62.2089,74.9269 56.2089,73.5936 50.5,71C 63.9625,70.0375 73.4625,63.5375 79,51.5C 79.4986,47.8484 79.6653,44.1817 79.5,40.5 Z"/></g>
<g><path style="opacity:0.469" fill="#fefffe" d="M 27.5,35.5 C 34.5316,35.1697 41.5316,35.503 48.5,36.5C 45,36.8333 41.5,37.1667 38,37.5C 34.0982,37.4877 30.5982,36.821 27.5,35.5 Z"/></g>
<g><path style="opacity:0.441" fill="#fefffe" d="M 50.5,35.5 C 54.226,35.1774 57.8927,35.5108 61.5,36.5C 59.6667,36.8333 57.8333,37.1667 56,37.5C 53.7047,37.4535 51.8714,36.7868 50.5,35.5 Z"/></g>
<g><path style="opacity:0.454" fill="#fefffe" d="M 22.5,41.5 C 27.2137,41.1734 31.8804,41.5067 36.5,42.5C 34.1667,42.8333 31.8333,43.1667 29.5,43.5C 26.7305,43.4714 24.3972,42.8048 22.5,41.5 Z"/></g>
<g><path style="opacity:0.476" fill="#fefffe" d="M 38.5,41.5 C 47.5246,41.1685 56.5246,41.5018 65.5,42.5C 61,42.8333 56.5,43.1667 52,43.5C 47.1139,43.4927 42.6139,42.8261 38.5,41.5 Z"/></g>
<g><path style="opacity:0.48" fill="#fefffe" d="M 22.5,47.5 C 33.5202,47.1679 44.5202,47.5012 55.5,48.5C 50,48.8333 44.5,49.1667 39,49.5C 33.1238,49.4952 27.6238,48.8286 22.5,47.5 Z"/></g>
<g><path style="opacity:0.441" fill="#fefffe" d="M 58.5,47.5 C 62.226,47.1774 65.8927,47.5108 69.5,48.5C 67.6667,48.8333 65.8333,49.1667 64,49.5C 61.7047,49.4535 59.8714,48.7868 58.5,47.5 Z"/></g>
<g><path style="opacity:0.481" fill="#fefffe" d="M 27.5,54.5 C 38.8529,54.1678 50.1862,54.5012 61.5,55.5C 55.8333,55.8333 50.1667,56.1667 44.5,56.5C 38.4585,56.4955 32.7918,55.8288 27.5,54.5 Z"/></g>
</svg>
