<?xml version="1.0" encoding="UTF-8"?> <svg xmlns="http://www.w3.org/2000/svg" width="512" height="512" viewBox="0 0 512 512" fill="none"> <g clip-path="url(#clip0_2794_258279)"> <circle cx="256.648" cy="251.648" r="251.648" fill="#0B1128"></circle> <path d="M277.877 158.76C297.418 158.76 313.329 164.25 325.612 175.23C338.081 186.024 344.315 200.354 344.315 218.219C344.315 235.899 338.081 250.322 325.612 261.488C313.329 272.468 297.418 277.958 277.877 277.958H258.057V245.018H277.877C286.624 245.018 293.416 242.598 298.255 237.76C303.28 232.921 305.792 226.408 305.792 218.219C305.792 210.403 303.28 204.076 298.255 199.237C293.416 194.212 286.624 191.7 277.877 191.7H246.333V343H208.647V158.76H277.877Z" fill="url(#paint0_linear_2794_258279)"></path> <path d="M325.612 175.23C313.329 164.25 297.418 158.76 277.877 158.76H208.647V191.691L248.845 191.69V191.7H277.877C286.624 191.7 293.416 194.212 298.255 199.237C303.28 204.076 305.792 210.403 305.792 218.219C305.792 226.408 303.28 232.921 298.255 237.76C293.416 242.598 286.624 245.018 277.877 245.018H258.057V277.958H277.877C297.418 277.958 313.329 272.468 325.612 261.488C338.081 250.322 344.315 235.899 344.315 218.219C344.315 200.354 338.081 186.024 325.612 175.23Z" fill="url(#paint1_linear_2794_258279)"></path> <path d="M255.688 435.64C356.918 435.64 438.968 353.08 438.968 251.253C438.968 149.425 356.918 66.8655 255.688 66.8655C154.458 66.8655 72.4077 149.425 72.4077 251.253C72.4077 353.08 154.458 435.64 255.688 435.64Z" stroke="#525C70" stroke-width="2.37403"></path> <path d="M91.6759 227.003C91.6759 236.775 83.8021 244.694 74.0943 244.694C64.3866 244.694 56.5129 236.775 56.5129 227.003C56.5129 217.23 64.3866 209.312 74.0943 209.312C83.8021 209.312 91.6759 217.23 91.6759 227.003Z" fill="#E6E6E6" stroke="#4D5C69" stroke-width="0.791345"></path> <path d="M440.036 325.288C440.036 335.06 432.162 342.978 422.455 342.978C412.747 342.978 404.873 335.06 404.873 325.288C404.873 315.515 412.747 307.597 422.455 307.597C432.162 307.597 440.036 315.515 440.036 325.288Z" fill="#E6E6E6" stroke="#4D5C69" stroke-width="0.791345"></path> <path d="M176.626 96.4301C176.626 106.203 168.752 114.121 159.045 114.121C149.337 114.121 141.463 106.203 141.463 96.4301C141.463 86.6575 149.337 78.7393 159.045 78.7393C168.752 78.7393 176.626 86.6575 176.626 96.4301Z" fill="#62E1C0" stroke="#4D5C69" stroke-width="0.791345"></path> <path d="M212.806 422.465C212.806 432.238 204.932 440.156 195.224 440.156C185.517 440.156 177.643 432.238 177.643 422.465C177.643 412.692 185.517 404.774 195.224 404.774C204.932 404.774 212.806 412.692 212.806 422.465Z" fill="#00BB99" stroke="#4D5C69" stroke-width="0.791345"></path> <path d="M256.498 502.736C118.035 502.736 5.38835 390.024 5.38835 251.484C5.38835 112.943 118.035 0.231793 256.498 0.231793C394.96 0.231793 507.607 112.943 507.607 251.484C507.607 390.024 394.96 502.736 256.498 502.736ZM256.498 1.87182C118.939 1.87182 7.027 113.847 7.027 251.484C7.027 389.121 118.939 501.096 256.498 501.096C394.056 501.096 505.968 389.121 505.968 251.484C505.968 113.847 394.056 1.87182 256.498 1.87182Z" fill="#4D5C69" stroke="#4D5C69" stroke-width="0.791345"></path> <path d="M486.007 118.975C486.007 128.522 478.272 136.261 468.73 136.261C459.189 136.261 451.453 128.522 451.453 118.975C451.453 109.427 459.189 101.688 468.73 101.688C478.272 101.688 486.007 109.427 486.007 118.975Z" fill="#00BB99" stroke="#4D5C69" stroke-width="0.791345"></path> <path d="M92.0644 423.337C92.0644 432.885 84.3291 440.624 74.7876 440.624C65.2462 440.624 57.5109 432.885 57.5109 423.337C57.5109 413.79 65.2462 406.05 74.7876 406.05C84.3291 406.05 92.0644 413.79 92.0644 423.337Z" fill="#ADF795" stroke="#4D5C69" stroke-width="0.791345"></path> <path d="M495.749 370.962C495.749 380.51 488.014 388.249 478.472 388.249C468.931 388.249 461.195 380.51 461.195 370.962C461.195 361.415 468.931 353.675 478.472 353.675C488.014 353.675 495.749 361.415 495.749 370.962Z" fill="#ADF795" stroke="#4D5C69" stroke-width="0.791345"></path> <path d="M339.476 494.067C339.476 503.615 331.741 511.354 322.2 511.354C312.658 511.354 304.923 503.615 304.923 494.067C304.923 484.52 312.658 476.78 322.2 476.78C331.741 476.78 339.476 484.52 339.476 494.067Z" fill="#00BB99" stroke="#4D5C69" stroke-width="0.791345"></path> <path d="M55.3594 125.456C55.3594 135.003 47.6241 142.743 38.0826 142.743C28.5411 142.743 20.8058 135.003 20.8058 125.456C20.8058 115.908 28.5411 108.169 38.0826 108.169C47.6241 108.169 55.3594 115.908 55.3594 125.456Z" fill="#ADF795" stroke="#4D5C69" stroke-width="0.791345"></path> <path d="M35.2537 -46.0881C201.066 -166.5 433.335 -128.743 553.019 38.078C672.704 204.899 635.176 438.579 469.364 558.991C303.552 679.402 71.283 641.646 -48.4015 474.825C-168.086 308.005 -130.558 74.3234 35.2537 -46.0881ZM467.726 556.708C632.288 437.204 669.532 205.287 550.751 39.7252C431.97 -125.837 201.454 -163.309 36.8918 -43.8049C-127.67 75.6989 -164.915 307.617 -46.1333 473.178C72.6478 638.74 303.164 676.211 467.726 556.708Z" fill="#4D5C69" stroke="#4D5C69" stroke-width="0.791345"></path> <path d="M255.452 826.234C-59.4282 826.234 -315.604 568.501 -315.604 251.703C-315.604 -65.0958 -59.4282 -322.827 255.452 -322.827C570.332 -322.827 826.508 -65.0958 826.508 251.703C826.508 568.501 570.332 826.234 255.452 826.234ZM255.452 -318.064C-56.8234 -318.064 -310.874 -62.4661 -310.874 251.703C-310.874 565.872 -56.8234 821.47 255.452 821.47C567.727 821.47 821.778 565.872 821.778 251.703C821.778 -62.4661 567.727 -318.064 255.452 -318.064Z" fill="#4D5C69" stroke="#4D5C69" stroke-width="0.791345"></path> </g> <defs> <linearGradient id="paint0_linear_2794_258279" x1="276.481" y1="158.76" x2="276.481" y2="343" gradientUnits="userSpaceOnUse"> <stop stop-color="#00BB99"></stop> <stop offset="1" stop-color="#78EFD0"></stop> </linearGradient> <linearGradient id="paint1_linear_2794_258279" x1="276.395" y1="158.76" x2="276.395" y2="277.958" gradientUnits="userSpaceOnUse"> <stop offset="0.411458" stop-color="#ADF694"></stop> <stop offset="1" stop-color="#00BB99"></stop> </linearGradient> <clipPath id="clip0_2794_258279"> <rect width="512" height="512" fill="white"></rect> </clipPath> </defs> </svg> 